<svg xmlns="http://www.w3.org/2000/svg" width="146" height="31" viewBox="0 0 146 31">
  <defs>
    <style>
      .cls-1 {
        fill: #6b2d32;
        fill-rule: evenodd;
      }
    </style>
  </defs>
  <path id="_FLEURIR" data-name="✿FLEURIR" class="cls-1" d="M13.272,14.9a14.184,14.184,0,0,0,3.9-9.223c0-.975-0.425-1.025-0.7-1.025a7.789,7.789,0,0,0-3.224,1.2,7.458,7.458,0,0,0-3.1-1.2c-0.45,0-.825.05-0.825,1.025a14.184,14.184,0,0,0,3.9,9.223h0.05ZM3.349,13.022c-0.7.5-2.174,2.175-2.174,2.974,0,0.975,3.249,1.25,4.549,1.25a12.38,12.38,0,0,0,6.249-1.45C9.848,11.5,4.949,9.148,3.824,9.148c-0.7,0-.725.9-0.725,1.8A7.254,7.254,0,0,0,3.349,13.022Zm19.8,0a7.257,7.257,0,0,0,.3-2.174c0-.525,0-1.7-0.775-1.7-1.125,0-6.023,2.349-8.148,6.648a12.38,12.38,0,0,0,6.249,1.45c1.325,0,4.549-.3,4.549-1.25C25.319,15.4,23.944,13.6,23.145,13.022Zm-10.722,4.3a14.309,14.309,0,0,0-8.573,5.174,1.228,1.228,0,0,0-.325.75c0,0.875,2.874,1.425,3.6,1.425,0.325,1.025,1.625,3,2.324,3,0.8,0,3.174-4,3.174-8.5a11.227,11.227,0,0,0-.15-1.825Zm1.6,0.025a11.227,11.227,0,0,0-.15,1.825c0,4.474,2.349,8.5,3.2,8.5,0.625,0,2-2.049,2.3-3,0.975,0,3.6-.6,3.6-1.425a1.228,1.228,0,0,0-.325-0.75,14.309,14.309,0,0,0-8.573-5.174Zm12.693-7.263h0.552a3.061,3.061,0,0,1,1.019.11,0.7,0.7,0,0,1,.368.33,2.321,2.321,0,0,1,.111.891V21.2a1.219,1.219,0,0,1-.288.958,2.071,2.071,0,0,1-1.21.238H26.714v2.356h8.313V22.4h-0.7a2.648,2.648,0,0,1-.94-0.11,0.7,0.7,0,0,1-.354-0.336,2.291,2.291,0,0,1-.11-0.873V17.505h0.94a3.752,3.752,0,0,1,.909.073,1.094,1.094,0,0,1,.446.256,1.235,1.235,0,0,1,.305.476,2.07,2.07,0,0,1,.086.7v1.1h2.2V12.488h-2.2v0.9a2.265,2.265,0,0,1-.153.977,1.139,1.139,0,0,1-.5.476,2.079,2.079,0,0,1-.958.183H32.928V10.511h2.1a13.484,13.484,0,0,1,1.856.085,4.178,4.178,0,0,1,1.453.537A4.373,4.373,0,0,1,39.5,12.14a8.542,8.542,0,0,1,1.025,1.788l2.209-.769L40.8,7.727H26.714v2.356Zm17.053,0h0.9a1.512,1.512,0,0,1,.71.122,0.792,0.792,0,0,1,.328.391,2.415,2.415,0,0,1,.115.879v9.644a1.892,1.892,0,0,1-.115.787,0.838,0.838,0,0,1-.37.36,1.659,1.659,0,0,1-.752.134H43.768v2.356h13l2.246-6.3-2.246-.769a8.2,8.2,0,0,1-1.373,2.57A4.871,4.871,0,0,1,53.6,21.631a6.76,6.76,0,0,1-2.631.427,1.8,1.8,0,0,1-.659-0.079,0.416,0.416,0,0,1-.226-0.214,2.663,2.663,0,0,1-.055-0.72V11.316a1.787,1.787,0,0,1,.133-0.8,0.821,0.821,0,0,1,.425-0.372,2.807,2.807,0,0,1,.764-0.061h0.728V7.727H43.768v2.356Zm15.942,0h0.757a2.133,2.133,0,0,1,.867.116,0.71,0.71,0,0,1,.323.348,2.95,2.95,0,0,1,.1.989v9.277a4.851,4.851,0,0,1-.061,1.038,0.74,0.74,0,0,1-.415.427,3.5,3.5,0,0,1-1.148.122H59.71v2.356H74.442l2.235-6.331-2.23-.77a7.267,7.267,0,0,1-1.325,2.435,5.159,5.159,0,0,1-1.96,1.484,7,7,0,0,1-2.7.46H67.035a2.457,2.457,0,0,1-.764-0.073,0.421,0.421,0,0,1-.238-0.208,2.614,2.614,0,0,1-.061-0.759V17.078h0.769A4.572,4.572,0,0,1,68.1,17.2a0.938,0.938,0,0,1,.482.466,2.517,2.517,0,0,1,.177,1.092V19.5h2.173V12.281H68.755v0.647a3.148,3.148,0,0,1-.146,1.19,0.9,0.9,0,0,1-.482.439,3.931,3.931,0,0,1-1.3.14H65.972V10.45h2.6a7.673,7.673,0,0,1,2.118.262,3.654,3.654,0,0,1,1.66,1.068A7.263,7.263,0,0,1,73.663,13.9l2.21-.793L73.93,7.727H59.71v2.356Zm17.5,0H78a2,2,0,0,1,.855.122,0.7,0.7,0,0,1,.317.385,4.236,4.236,0,0,1,.1,1.166v6.58a8.929,8.929,0,0,0,.372,2.954,5.143,5.143,0,0,0,1.306,1.9,6.5,6.5,0,0,0,2.179,1.379,7.763,7.763,0,0,0,2.82.482,7.562,7.562,0,0,0,3.864-.946,5.575,5.575,0,0,0,2.374-2.655,7.938,7.938,0,0,0,.537-3.113V11.621a2.959,2.959,0,0,1,.1-1.013,0.907,0.907,0,0,1,.427-0.427,3.029,3.029,0,0,1,1.013-.1h0.549V7.727H87.774v2.356h0.659a2.961,2.961,0,0,1,.867.073,0.794,0.794,0,0,1,.391.342,1.25,1.25,0,0,1,.11.61v6.836a6.583,6.583,0,0,1-.336,2.484,2.808,2.808,0,0,1-1.119,1.239,3.3,3.3,0,0,1-1.786.488,3.122,3.122,0,0,1-1.706-.446,2.687,2.687,0,0,1-1.052-1.3,7.246,7.246,0,0,1-.349-2.588v-6.2a3.02,3.02,0,0,1,.11-1.019,0.8,0.8,0,0,1,.348-0.385,1.734,1.734,0,0,1,.8-0.134h0.818V7.727H77.215v2.356Zm18.933,0.073h0.639l0.344-.012a1.613,1.613,0,0,1,.675.134,0.5,0.5,0,0,1,.3.311,2.445,2.445,0,0,1,.092.8v9.583a3.65,3.65,0,0,1-.061.915,0.816,0.816,0,0,1-.375.385,2.033,2.033,0,0,1-.853.128H96.148v2.356h8.337V22.4H103.7a2.077,2.077,0,0,1-.86-0.116,0.682,0.682,0,0,1-.312-0.354,3.816,3.816,0,0,1-.1-1.117V17.42h1.416l5.468,7.336h5.457V22.4h-0.733a2.8,2.8,0,0,1-.781-0.085,1.93,1.93,0,0,1-.561-0.287,3.474,3.474,0,0,1-.623-0.616l-0.146-.183-3.5-4.077a6.9,6.9,0,0,0,3.278-1.569,3.965,3.965,0,0,0,1.385-3.143,4.3,4.3,0,0,0-.537-2.148,4.471,4.471,0,0,0-1.509-1.575,5.514,5.514,0,0,0-2.174-.806,14.823,14.823,0,0,0-2.217-.183H96.148v2.429Zm9.094,0.366a6.747,6.747,0,0,1,2.094.232,2.027,2.027,0,0,1,.988.714,1.919,1.919,0,0,1,.348,1.154,2.063,2.063,0,0,1-.372,1.245,2.328,2.328,0,0,1-1.111.787,6.786,6.786,0,0,1-2.228.275h-2.526V10.523h2.807Zm10.352-.44h0.761a2.136,2.136,0,0,1,.835.1,0.765,0.765,0,0,1,.35.385,3.266,3.266,0,0,1,.1,1.044V21.07a2.487,2.487,0,0,1-.1.9,0.658,0.658,0,0,1-.325.33,2.7,2.7,0,0,1-.946.1h-0.675v2.356h8.313V22.4H123a1.592,1.592,0,0,1-.769-0.146,0.564,0.564,0,0,1-.293-0.317,3.468,3.468,0,0,1-.085-0.989V11.524a2.883,2.883,0,0,1,.1-0.958,0.709,0.709,0,0,1,.317-0.366,2.126,2.126,0,0,1,.873-0.116h0.757V7.727h-8.313v2.356Zm10.046,0.073h0.639l0.344-.012a1.612,1.612,0,0,1,.675.134,0.5,0.5,0,0,1,.3.311,2.456,2.456,0,0,1,.092.8v9.583a3.7,3.7,0,0,1-.061.915,0.821,0.821,0,0,1-.375.385,2.032,2.032,0,0,1-.853.128H125.64v2.356h8.338V22.4H133.2a2.077,2.077,0,0,1-.86-0.116,0.682,0.682,0,0,1-.312-0.354,3.816,3.816,0,0,1-.1-1.117V17.42h1.416l5.469,7.336h5.456V22.4h-0.732a2.8,2.8,0,0,1-.782-0.085,1.93,1.93,0,0,1-.561-0.287,3.507,3.507,0,0,1-.623-0.616l-0.146-.183-3.5-4.077a6.9,6.9,0,0,0,3.278-1.569,3.962,3.962,0,0,0,1.385-3.143,4.3,4.3,0,0,0-.537-2.148,4.454,4.454,0,0,0-1.509-1.575,5.514,5.514,0,0,0-2.174-.806,14.813,14.813,0,0,0-2.217-.183H125.64v2.429Zm9.094,0.366a6.742,6.742,0,0,1,2.094.232,2.034,2.034,0,0,1,.989.714,1.919,1.919,0,0,1,.348,1.154,2.063,2.063,0,0,1-.373,1.245,2.323,2.323,0,0,1-1.111.787,6.784,6.784,0,0,1-2.227.275h-2.527V10.523h2.807Z"/>
</svg>
