<svg xmlns="http://www.w3.org/2000/svg" width="92" height="21" viewBox="0 0 92 21">
  <defs>
    <style>
      .cls-1 {
        fill: #6b2d32;
        fill-rule: evenodd;
      }
    </style>
  </defs>
  <path id="_FLEURIR" data-name="✿FLEURIR" class="cls-1" d="M8.569,9.119a9.083,9.083,0,0,0,2.5-5.906c0-.624-0.272-0.656-0.448-0.656a4.988,4.988,0,0,0-2.065.768,4.777,4.777,0,0,0-1.985-.768c-0.288,0-.528.032-0.528,0.656a9.083,9.083,0,0,0,2.5,5.906H8.569Zm-6.355-1.2a3.99,3.99,0,0,0-1.393,1.9c0,0.624,2.081.8,2.913,0.8a7.929,7.929,0,0,0,4-.928A8.57,8.57,0,0,0,2.519,5.438c-0.448,0-.464.576-0.464,1.152A4.646,4.646,0,0,0,2.215,7.919Zm12.677,0a4.651,4.651,0,0,0,.192-1.393c0-.336,0-1.088-0.5-1.088A8.57,8.57,0,0,0,9.37,9.7a7.929,7.929,0,0,0,4,.928c0.848,0,2.913-.192,2.913-0.8A4.432,4.432,0,0,0,14.892,7.919ZM8.025,10.672a9.163,9.163,0,0,0-5.49,3.313,0.786,0.786,0,0,0-.208.48c0,0.56,1.841.912,2.3,0.912C4.84,16.034,5.672,17.3,6.12,17.3c0.512,0,2.033-2.561,2.033-5.442a7.191,7.191,0,0,0-.1-1.168Zm1.024,0.016a7.191,7.191,0,0,0-.1,1.168c0,2.865,1.5,5.442,2.049,5.442,0.4,0,1.281-1.312,1.473-1.921,0.624,0,2.3-.384,2.3-0.912a0.787,0.787,0,0,0-.208-0.48,9.164,9.164,0,0,0-5.49-3.313Zm8.118-4.645h0.354a1.959,1.959,0,0,1,.652.07,0.448,0.448,0,0,1,.236.211,1.486,1.486,0,0,1,.071.57v6.266a0.78,0.78,0,0,1-.185.613,1.325,1.325,0,0,1-.774.152H17.167v1.508h5.32V13.926H22.042a1.694,1.694,0,0,1-.6-0.07,0.444,0.444,0,0,1-.227-0.215,1.465,1.465,0,0,1-.07-0.559V10.793h0.6a2.406,2.406,0,0,1,.582.047,0.7,0.7,0,0,1,.285.164,0.79,0.79,0,0,1,.2.3,1.325,1.325,0,0,1,.055.445v0.7h1.406V7.582H22.863V8.161a1.449,1.449,0,0,1-.1.625,0.728,0.728,0,0,1-.32.3,1.331,1.331,0,0,1-.613.117H21.144V6.317h1.344a8.624,8.624,0,0,1,1.188.055,2.672,2.672,0,0,1,.93.344,2.8,2.8,0,0,1,.742.645A5.466,5.466,0,0,1,26,8.5l1.414-.492L26.182,4.536H17.167V6.043Zm10.914,0h0.575a0.968,0.968,0,0,1,.454.078,0.507,0.507,0,0,1,.21.25,1.544,1.544,0,0,1,.074.563v6.172a1.209,1.209,0,0,1-.074.5,0.536,0.536,0,0,1-.237.23,1.061,1.061,0,0,1-.482.086h-0.52v1.508H36.4L37.839,11.4,36.4,10.911a5.248,5.248,0,0,1-.879,1.645,3.118,3.118,0,0,1-1.148.879,4.328,4.328,0,0,1-1.684.273,1.151,1.151,0,0,1-.422-0.051,0.266,0.266,0,0,1-.145-0.137,1.706,1.706,0,0,1-.035-0.461V6.832a1.144,1.144,0,0,1,.085-0.512,0.525,0.525,0,0,1,.272-0.238,1.8,1.8,0,0,1,.489-0.039H33.4V4.536h-5.32V6.043Zm10.2,0h0.484a1.364,1.364,0,0,1,.555.074,0.454,0.454,0,0,1,.207.223,1.887,1.887,0,0,1,.066.633v5.937a3.1,3.1,0,0,1-.039.664,0.474,0.474,0,0,1-.266.273,2.242,2.242,0,0,1-.734.078H38.284v1.508h9.429l1.431-4.052-1.427-.493a4.651,4.651,0,0,1-.848,1.558,3.3,3.3,0,0,1-1.255.95,4.481,4.481,0,0,1-1.727.294H42.972a1.574,1.574,0,0,1-.489-0.047,0.269,0.269,0,0,1-.152-0.133,1.668,1.668,0,0,1-.039-0.486V10.52h0.492a2.923,2.923,0,0,1,.867.079,0.6,0.6,0,0,1,.309.3,1.611,1.611,0,0,1,.113.7v0.471h1.391V7.45H44.073V7.864a2.014,2.014,0,0,1-.094.762,0.575,0.575,0,0,1-.309.281,2.517,2.517,0,0,1-.832.09H42.292V6.278h1.664a4.909,4.909,0,0,1,1.355.168,2.338,2.338,0,0,1,1.063.684,4.651,4.651,0,0,1,.84,1.359l1.414-.508L47.385,4.536h-9.1V6.043Zm11.2,0h0.5a1.277,1.277,0,0,1,.547.078,0.448,0.448,0,0,1,.2.246,2.71,2.71,0,0,1,.063.746v4.211a5.712,5.712,0,0,0,.238,1.891,3.292,3.292,0,0,0,.836,1.215,4.156,4.156,0,0,0,1.395.883,4.967,4.967,0,0,0,1.8.309,4.84,4.84,0,0,0,2.473-.605,3.568,3.568,0,0,0,1.52-1.7,5.079,5.079,0,0,0,.344-1.992v-4.3a1.891,1.891,0,0,1,.063-0.648,0.58,0.58,0,0,1,.273-0.273,1.939,1.939,0,0,1,.648-0.062h0.352V4.536h-4.5V6.043h0.422a1.9,1.9,0,0,1,.555.047,0.509,0.509,0,0,1,.25.219,0.8,0.8,0,0,1,.07.391v4.375a4.214,4.214,0,0,1-.215,1.59,1.8,1.8,0,0,1-.716.793,2.114,2.114,0,0,1-1.143.313,2,2,0,0,1-1.092-.285,1.72,1.72,0,0,1-.673-0.832A4.637,4.637,0,0,1,53.48,11V7.028a1.932,1.932,0,0,1,.07-0.652,0.512,0.512,0,0,1,.223-0.246,1.109,1.109,0,0,1,.512-0.086h0.523V4.536h-5.32V6.043ZM61.6,6.09h0.409l0.22-.008a1.033,1.033,0,0,1,.432.086,0.318,0.318,0,0,1,.192.2,1.564,1.564,0,0,1,.059.512v6.133a2.337,2.337,0,0,1-.039.586,0.522,0.522,0,0,1-.24.246,1.3,1.3,0,0,1-.546.082H61.6v1.508h5.336V13.926h-0.5a1.33,1.33,0,0,1-.551-0.074,0.437,0.437,0,0,1-.2-0.226,2.434,2.434,0,0,1-.062-0.715V10.739h0.906l3.5,4.7h3.492V13.926H73.058a1.792,1.792,0,0,1-.5-0.055,1.237,1.237,0,0,1-.359-0.184,2.235,2.235,0,0,1-.4-0.395l-0.094-.117-2.242-2.609a4.42,4.42,0,0,0,2.1-1,2.536,2.536,0,0,0,.887-2.012A2.748,2.748,0,0,0,72.1,6.176a2.855,2.855,0,0,0-.965-1.008,3.53,3.53,0,0,0-1.392-.516,9.484,9.484,0,0,0-1.419-.117H61.6V6.09Zm5.82,0.234a4.315,4.315,0,0,1,1.34.148,1.3,1.3,0,0,1,.633.457,1.229,1.229,0,0,1,.223.738,1.32,1.32,0,0,1-.238.8,1.489,1.489,0,0,1-.711.5,4.344,4.344,0,0,1-1.426.176H65.628V6.325h1.8Zm6.625-.281h0.487a1.367,1.367,0,0,1,.534.063,0.489,0.489,0,0,1,.224.246,2.1,2.1,0,0,1,.067.668v6.055a1.6,1.6,0,0,1-.067.574,0.42,0.42,0,0,1-.208.211,1.722,1.722,0,0,1-.605.066H74.05v1.508h5.32V13.926H78.792a1.017,1.017,0,0,1-.492-0.094,0.359,0.359,0,0,1-.187-0.2A2.215,2.215,0,0,1,78.058,13V6.965a1.86,1.86,0,0,1,.066-0.613,0.453,0.453,0,0,1,.2-0.234,1.361,1.361,0,0,1,.559-0.074H79.37V4.536H74.05V6.043ZM80.48,6.09h0.409l0.22-.008a1.033,1.033,0,0,1,.432.086,0.318,0.318,0,0,1,.192.2,1.564,1.564,0,0,1,.059.512v6.133a2.337,2.337,0,0,1-.039.586,0.522,0.522,0,0,1-.24.246,1.3,1.3,0,0,1-.546.082H80.48v1.508h5.336V13.926h-0.5a1.33,1.33,0,0,1-.551-0.074,0.437,0.437,0,0,1-.2-0.226,2.434,2.434,0,0,1-.062-0.715V10.739h0.906l3.5,4.7H92.4V13.926H91.933a1.792,1.792,0,0,1-.5-0.055,1.237,1.237,0,0,1-.359-0.184,2.235,2.235,0,0,1-.4-0.395l-0.094-.117-2.242-2.609a4.42,4.42,0,0,0,2.1-1,2.536,2.536,0,0,0,.887-2.012,2.748,2.748,0,0,0-.344-1.375,2.855,2.855,0,0,0-.965-1.008,3.53,3.53,0,0,0-1.392-.516A9.484,9.484,0,0,0,87.2,4.536H80.48V6.09ZM86.3,6.325a4.315,4.315,0,0,1,1.34.148,1.3,1.3,0,0,1,.633.457,1.229,1.229,0,0,1,.223.738,1.32,1.32,0,0,1-.238.8,1.489,1.489,0,0,1-.711.5,4.344,4.344,0,0,1-1.426.176H84.5V6.325h1.8Z"/>
</svg>
